<svg xmlns="http://www.w3.org/2000/svg" width="44" height="44" fill="none"><path fill="#EA4335" fill-rule="evenodd" d="M22 44c12.1503 0 22-9.8497 22-22C44 9.84974 34.1503 0 22 0 9.84974 0 0 9.84974 0 22c0 12.1503 9.84974 22 22 22Z" clip-rule="evenodd"/><path fill="#fff" d="M25.0579 18.3782c-.8291-.7927-1.8837-1.1964-3.0582-1.1964-2.0833 0-3.8467 1.4068-4.4761 3.2972-.16.48-.2509.9937-.2509 1.521 0 .5272.0909 1.04.2509 1.52.6293 1.8906 2.3926 3.2977 4.4761 3.2977 1.0763 0 1.9927-.2836 2.7091-.7636.8472-.5673 1.4112-1.4142 1.5967-2.4141H22v-3.0946h7.5345c.0946.5236.1455 1.0691.1455 1.6364 0 2.4363-.8727 4.4872-2.3855 5.88-1.3236 1.2215-3.1351 1.9377-5.2948 1.9377-3.1273 0-5.8328-1.7927-7.1491-4.4072C14.309 24.5124 14 23.2906 14 22c0-1.2909.3091-2.5126.8508-3.5926C16.1672 15.7929 18.8724 14 21.9997 14c2.1563 0 3.9672.7927 5.3527 2.0836l-2.2945 2.2946Z"/></svg>