<svg xmlns="http://www.w3.org/2000/svg" width="44" height="44" fill="none"><path fill="#EF7D00" fill-rule="evenodd" d="M22 44c12.1503 0 22-9.8497 22-22C44 9.84974 34.1503 0 22 0 9.84974 0 0 9.84974 0 22c0 12.1503 9.84974 22 22 22Z" clip-rule="evenodd"/><path fill="#fff" d="M27.268 25.4085c-.9666.6074-2.0163 1.0379-3.1048 1.286l2.9891 2.9891c.6124.611.6124 1.6033 0 2.2149-.6117.6117-1.6032.6117-2.2143 0l-2.9385-2.9372-2.936 2.9372c-.3062.3056-.7072.4587-1.1084.4587-.4005 0-.801-.1531-1.1072-.4587-.6117-.6116-.6117-1.6032-.0006-2.2149l2.9891-2.9891c-1.0885-.2481-2.1382-.6792-3.1047-1.286-.7317-.461-.9516-1.4276-.4906-2.1599.46-.7333 1.4265-.9538 2.1595-.4928 2.1887 1.3769 5.0085 1.3775 7.1985 0 .7328-.461 1.6995-.2405 2.1599.4928.4611.7317.2405 1.6989-.491 2.1599Z"/><path fill="#fff" fill-rule="evenodd" d="M27.3456 16.9897c0 2.9475-2.3973 5.3449-5.3465 5.3449-2.9485 0-5.3465-2.3974-5.3465-5.3449 0-2.9489 2.398-5.3471 5.3465-5.3471 2.9492 0 5.3465 2.3982 5.3465 5.3471Zm-3.1323-.0013c0-1.2209-.9929-2.2138-2.2137-2.2138-1.2196 0-2.2138.9929-2.2138 2.2138 0 1.2196.9942 2.2127 2.2138 2.2127 1.2208 0 2.2137-.9931 2.2137-2.2127Z" clip-rule="evenodd"/></svg>