<svg xmlns="http://www.w3.org/2000/svg" width="44" height="44" fill="none"><path fill="#07F" fill-rule="evenodd" d="M22 44c12.1503 0 22-9.8497 22-22C44 9.84974 34.1503 0 22 0 9.84974 0 0 9.84974 0 22c0 12.1503 9.84974 22 22 22Z" clip-rule="evenodd"/><path fill="#fff" d="M22.9304 28.5c-7.1181 0-11.1781-4.8799-11.3473-13h3.5656c.1171 5.96 2.7457 8.4845 4.8278 9.005V15.5h3.3574v5.1401c2.0561-.2212 4.216-2.5635 4.9447-5.1401h3.3574c-.5595 3.1752-2.9019 5.5175-4.5675 6.4805 1.6656.7808 4.3334 2.8238 5.3485 6.5195h-3.6959c-.7938-2.4725-2.7715-4.3854-5.3872-4.6456V28.5h-.4035Z"/></svg>